# AST/ASF file generated using VICON BodyLanguage
# -----------------------------------------------
:version 1.10
:name VICON
:units
  mass 1.0
  length 0.1
  angle deg
:documentation
   .ast/.asf automatically generated from VICON data using
   VICON BodyBuilder and BodyLanguage model FULLBODY5.MOD
:root
   order TX TY TZ RZ RY RX
   axis XYZ
   position 0 0 0  
   orientation 0 -0 0 
:bonedata
  begin
     id 1 
     name lhipjoint
     direction 0.969109 -0.218487 0.11442 
     length 0.544217 
     axis 0 -0 0  XYZ
  end
  begin
     id 2 
     name lfemur
     direction 0.173648 -0.984808 0  
     length 1.81499  
     axis 0 -0 10  XYZ
    dof rx ry rz
    limits (-180.0 180.0)
           (-180.0 180.0)
           (-180.0 180.0)
  end
  begin
     id 3 
     name ltibia
     direction 0.173515 -0.984831 0   
     length 1.55296   
     axis 0 -0 10   XYZ
    dof rx ry rz
    limits (-180.0 180.0)
           (-180.0 180.0)
           (-180.0 180.0)
  end
  begin
     id 4 
     name lfoot
     direction 7.36097e-012 -0.333012 0.942922   
     length 0.509062   
     axis -90 -1.73656e-015 10   XYZ
    dof rx ry rz
    limits (-180.0 180.0)
           (-180.0 180.0)
           (-180.0 180.0)
  end
  begin
     id 5 
     name ltoes
     direction 7.7847e-012 -4.42403e-011 1   
     length 0.249732   
     axis -90 -1.73656e-015 10   XYZ
    dof rx ry rz
    limits (-180.0 180.0)
           (-180.0 180.0)
           (-180.0 180.0)
  end
  begin
     id 6 
     name rhipjoint
     direction -0.966745 -0.226554 0.118645   
     length 0.524838  
     axis 0 -0 0  XYZ 
  end
  begin
     id 7 
     name rfemur
     direction -0.173648 -0.984808 0   
     length 1.84625   
     axis 0 -0 -10   XYZ
    dof rx ry rz
    limits (-180.0 180.0)
           (-180.0 180.0)
           (-180.0 180.0)
  end
  begin
     id 8 
     name rtibia
     direction -0.173714 -0.984796 0   
     length 1.577   
     axis 0 -0 -10   XYZ
    dof rx ry rz
    limits (-180.0 180.0)
           (-180.0 180.0)
           (-180.0 180.0)
 end
 begin
     id 9 
     name rfoot
     direction -0.0183819 -0.0406144 0.999006   
     length 0.490111  
     axis -90 1.73656e-015 -10   XYZ
    dof rx ry rz
    limits (-180.0 180.0)
           (-180.0 180.0)
           (-180.0 180.0)
  end
  begin
     id 10 
     name rtoes
     direction -7.79087e-012 -4.42375e-011 1   
     length 0.245053   
     axis -90 1.73656e-015 -10   XYZ
    dof rx ry rz
    limits (-180.0 180.0)
           (-180.0 180.0)
           (-180.0 180.0)
  end
  begin
     id 11 
     name lowerback
     direction -0.0664844 0.980601 0.184393   
     length 0.458979   
     axis 0 -0 0   XYZ
    dof rx ry rz
    limits (-180.0 180.0)
           (-180.0 180.0)
           (-180.0 180.0)
  end
  begin
     id 12 
     name upperback
     direction 0.0135995 0.999573 0.02588   
     length 0.463983   
     axis 0 -0 0   XYZ
    dof rx ry rz
    limits (-180.0 180.0)
           (-180.0 180.0)
           (-180.0 180.0)
  end
  begin
     id 13 
     name thorax
     direction 0.0468402 0.997311 -0.0563691   
     length 0.482746   
     axis 0 -0 0   XYZ
    dof rx ry rz
    limits (-180.0 180.0)
           (-180.0 180.0)
           (-180.0 180.0)
  end
  begin
     id 14 
     name lowerneck
     direction -0.00174311 0.988586 -0.150647   
     length 0.364383   
     axis 0 -0 0   XYZ
    dof rx ry rz
    limits (-180.0 180.0)
           (-180.0 180.0)
           (-180.0 180.0)
  end
  begin
     id 15 
     name upperneck
     direction -0.02653 0.999379 -0.0231908   
     length 0.361006   
     axis 0 -0 0   XYZ
    dof rx ry rz
    limits (-180.0 180.0)
           (-180.0 180.0)
           (-180.0 180.0)
  end
  begin
     id 16
     name head
     direction -0.00819207 0.999941 0.00714285  
     length 0.378714  
     axis 0 -0 0   XYZ
    dof rx ry rz
    limits (-180.0 180.0)
           (-180.0 180.0)
           (-180.0 180.0)
  end
  begin
     id 17 
     name lshoulderjoint
     direction 0.981627 -0.190809 0  
     length 0.612969  
     axis 0 -0 -11   XYZ
    dof rx ry rz
    limits (-180.0 180.0)
           (-180.0 180.0)
           (-180.0 180.0)
  end
  begin
     id 18 
     name lhumerus
     direction 0.48481 -0.87462 -9.72962e-027   
     length 1.19637   
     axis -180 5.14477e-009 -151   XYZ
    dof rx ry rz
    limits (-180.0 180.0)
           (-180.0 180.0)
           (-180.0 180.0)
  end
  begin
     id 19
     name lradius
     direction 0.48481 -0.87462 -2.35761e-026   
     length 0.637735   
     axis -180 5.14477e-009 -151   XYZ
    dof rx ry rz
    limits (-180.0 180.0)
           (-180.0 180.0)
           (-180.0 180.0)
  end
  begin
     id 20
     name lwrist
     direction 0.48481 -0.87462 -5.51856e-026   
     length 0.318868   
     axis -180 5.14477e-009 -151   XYZ
    dof rx ry rz
    limits (-180.0 180.0)
           (-180.0 180.0)
           (-180.0 180.0)
  end
  begin
     id 21 
     name lhand
     direction 0.477747 -0.861928 -0.169816   
     length 0.29526   
     axis -180 5.14477e-009 -151   XYZ
    dof rx ry rz
    limits (-180.0 180.0)
           (-180.0 180.0)
           (-180.0 180.0)
  end
  begin
     id 22 
     name rshoulderjoint
     direction -0.981627 -0.190809 0   
     length 0.572347  
     axis 0 -0 11   XYZ 
    dof rx ry rz
    limits (-180.0 180.0)
           (-180.0 180.0)
           (-180.0 180.0)
  end
  begin
     id 23 
     name rhumerus
     direction -0.48481 -0.87462 1.64836e-026  
     length 1.28846   
     axis 180 5.14477e-009 151   XYZ
    dof rx ry rz
    limits (-180.0 180.0)
           (-180.0 180.0)
           (-180.0 180.0)
  end
  begin
     id 24 
     name rradius
     direction -0.48481 -0.87462 2.86827e-026   
     length 0.62107   
     axis 180 5.14477e-009 151   XYZ
    dof rx ry rz
    limits (-180.0 180.0)
           (-180.0 180.0)
           (-180.0 180.0)
  end
  begin
     id 25 
     name rwrist
     direction -0.48481 -0.87462 5.20942e-026   
     length 0.310535   
     axis 180 5.14477e-009 151   XYZ
    dof rx ry rz
    limits (-180.0 180.0)
           (-180.0 180.0)
           (-180.0 180.0)
  end
  begin
     id 26
     name rhand
     direction -0.477664 -0.861515 -0.172133   
     length 0.291321   
     axis 180 5.14477e-009 151   XYZ
    dof rx ry rz
    limits (-180.0 180.0)
           (-180.0 180.0)
           (-180.0 180.0)
  end
:hierarchy
  begin
    root lhipjoint rhipjoint lowerback 
    lhipjoint lfemur
    lfemur ltibia
    ltibia lfoot
    lfoot ltoes
    rhipjoint rfemur
    rfemur rtibia
    rtibia rfoot
    rfoot rtoes
    lowerback upperback
    upperback thorax
    thorax lowerneck lshoulderjoint rshoulderjoint
    lowerneck upperneck
    upperneck head
    lshoulderjoint lhumerus
    lhumerus lradius
    lradius lwrist
    lwrist lhand
    rshoulderjoint rhumerus
    rhumerus rradius
    rradius rwrist
    rwrist rhand
  end

:FULLY-SPECIFIED
:DEGREES
1
root 0.108379 3.72847 -0.638872 90.3539 -68.4262 88.7534
lowerback -27.9169 -1.34631 -6.74086
upperback -5.61053 -0.442179 1.33505
thorax 9.16504 -0.60375 5.21657
lowerneck 10.9601 -2.58813 -0.454261
upperneck 6.98718 -3.69526 -3.48731
head 0.305177 -1.96703 -0.890259
rshoulderjoint 1.40773 -2.33004 -42.151
rhumerus 170.611 -50.8749 -171.366
rradius 34.0924 4.0393e-013 2.22639e-014
rwrist 5.51468e-013 -3.83111 -3.83318e-013
rhand 9.17138 3.64757 -17.8319
lshoulderjoint 0.203342 0.362531 40.2882
lhumerus 168.566 76.443 179.596
lradius 37.3758 -2.63986e-013 -1.98785e-014
lwrist 5.0288e-014 -5.03818 2.93746e-013
lhand 18.0376 4.92348 -12.2796
rfemur -16.9875 12.4121 5.51079
rtibia -5.08889e-014 4.45278e-014 9.54166e-015
rfoot -177.759 -54.4161 156.851
rtoes -3.18055e-014 2.01071e-013 2.26615e-013
lfemur -14.9368 -8.92901 -11.753
ltibia -4.05521e-014 -3.65764e-014 -1.39149e-014
lfoot -7.32349 6.51058 10.1928
ltoes 1.8815e-013 8.2067e-014 -3.26007e-014
2
root 0.108631 3.72864 -0.638434 90.4047 -68.4436 88.809
lowerback -27.9105 -1.33664 -6.7245
upperback -5.61863 -0.435931 1.33665
thorax 9.15182 -0.599967 5.21092
lowerneck 11.0007 -2.58587 -0.463537
upperneck 7.01507 -3.69524 -3.48551
head 0.307673 -1.96819 -0.887912
rshoulderjoint 1.39276 -2.30529 -42.1505
rhumerus 170.636 -50.9688 -171.403
rradius 34.1083 6.36111e-015 2.54444e-014
rwrist -7.80986e-014 -3.83649 2.23139e-014
rhand 9.22642 3.6541 -17.7631
lshoulderjoint 0.191616 0.341657 40.2858
lhumerus 168.698 76.4619 179.734
lradius 37.3699 -1.90833e-014 -5.80451e-014
lwrist -3.75156e-014 -5.02281 -7.26365e-014
lhand 18.0537 4.90929 -12.2349
rfemur -16.9784 12.4311 5.50782
rtibia -1.98785e-014 -2.38542e-014 7.35503e-015
rfoot -177.793 -54.4127 156.873
rtoes -4.92986e-014 6.01324e-015 6.52014e-014
lfemur -14.9213 -8.91038 -11.7616
ltibia -9.54166e-015 -1.27222e-014 -1.59028e-015
lfoot -7.31074 6.50306 10.1978
ltoes 2.40529e-014 -9.22485e-015 -7.99114e-014
3
root 0.109018 3.72874 -0.63797 90.4364 -68.4506 88.8469
lowerback -27.8987 -1.3289 -6.70562
upperback -5.63194 -0.433245 1.33351
thorax 9.13038 -0.597433 5.19706
lowerneck 11.0257 -2.59246 -0.4375
upperneck 7.0449 -3.70211 -3.50462
head 0.311935 -1.97193 -0.897931
rshoulderjoint 1.38344 -2.2906 -42.1423
rhumerus 170.653 -51.0847 -171.434
rradius 34.1127 1.01778e-013 -3.10104e-013
rwrist 3.82529e-014 -3.84922 -6.24798e-013
rhand 9.29397 3.66746 -17.7028
lshoulderjoint 0.189985 0.338701 40.2893
lhumerus 168.751 76.4854 179.791
lradius 37.3614 2.41722e-013 2.31385e-013
lwrist 3.9034e-013 -5.05267 9.97801e-014
lhand 18.0764 4.93753 -12.286
rfemur -16.983 12.443 5.50541
rtibia 5.56597e-014 -1.59028e-015 -1.54058e-014
rfoot -177.862 -54.41 156.924
rtoes 1.81292e-013 2.94201e-013 -1.86858e-013
lfemur -14.9194 -8.89855 -11.7662
ltibia 6.04305e-014 -1.59028e-015 -9.54166e-015
lfoot -7.30519 6.48218 10.1992
ltoes -3.61291e-013 1.56773e-013 7.55382e-015
4
root 0.10944 3.72904 -0.637549 90.4903 -68.4662 88.9073
lowerback -27.8793 -1.32003 -6.69137
upperback -5.64417 -0.428504 1.33468
thorax 9.10612 -0.593936 5.19148
lowerneck 11.0644 -2.5901 -0.434192
upperneck 7.06662 -3.70047 -3.501
head 0.312628 -1.97179 -0.897114
rshoulderjoint 1.37464 -2.27781 -42.1222
rhumerus 170.658 -51.1583 -171.434
rradius 34.1227 7.18805e-013 1.90833e-014
rwrist 7.87371e-013 -3.8468 -7.23616e-013
rhand 9.29271 3.63403 -17.6929
lshoulderjoint 0.188737 0.336444 40.2916
lhumerus 168.767 76.5117 179.824
lradius 37.3531 -4.26194e-013 -5.80451e-014
lwrist 2.54243e-013 -5.06175 4.47021e-013
lhand 18.0731 4.94457 -12.3053
rfemur -16.9799 12.4632 5.50207
rtibia -4.77083e-015 -9.54166e-015 3.97569e-015
rfoot -177.91 -54.4058 156.96
rtoes 7.95139e-015 7.73769e-014 3.81667e-014
lfemur -14.9086 -8.87807 -11.7728
ltibia -1.11319e-014 -4.77083e-015 -5.56597e-015
lfoot -7.30367 6.48171 10.2011
ltoes -1.41137e-014 4.30182e-014 -2.3059e-014
5
root 0.109663 3.72932 -0.636804 90.4992 -68.4938 88.9526
lowerback -27.8699 -1.30329 -6.6352
upperback -5.6514 -0.424418 1.3351
thorax 9.09293 -0.590133 5.16055
lowerneck 11.1097 -2.597 -0.40438
upperneck 7.09966 -3.70834 -3.50706
head 0.314893 -1.97607 -0.903436
rshoulderjoint 1.35972 -2.25435 -42.1077
rhumerus 170.683 -51.1886 -171.469
rradius 34.1268 -1.01778e-013 -1.1291e-013
rwrist 1.89671e-013 -3.84916 -6.61457e-014
rhand 9.30183 3.66101 -17.6959
lshoulderjoint 0.166739 0.296949 40.3147
lhumerus 168.993 76.5283 180.074
lradius 37.3471 1.145e-013 8.26944e-014
lwrist 7.38397e-014 -5.07391 7.1844e-015
lhand 18.082 4.95804 -12.3164
rfemur -16.9579 12.4767 5.52786
rtibia -6.36111e-015 9.54166e-015 -5.36719e-015
rfoot -177.99 -54.3925 157.028
rtoes 1.11319e-014 -4.96962e-016 2.62396e-014
lfemur -14.8845 -8.86513 -11.7571
ltibia 5.56597e-015 1.43125e-014 -1.31198e-014
lfoot -7.28841 6.46176 10.2061
ltoes 2.37548e-014 6.03187e-014 1.02573e-013
6
root 0.110157 3.72964 -0.636175 90.4981 -68.5068 88.9936
lowerback -27.866 -1.29246 -6.58275
upperback -5.65506 -0.426902 1.34197
thorax 9.08745 -0.589904 5.1369
lowerneck 11.1371 -2.60033 -0.380077
upperneck 7.12484 -3.71132 -3.51322
head 0.317716 -1.97779 -0.909184
rshoulderjoint 1.35799 -2.2516 -42.1063
rhumerus 170.651 -51.2099 -171.476
rradius 34.1287 -5.53417e-013 -1.38354e-013
rwrist -5.0367e-013 -3.85922 3.64204e-013
rhand 9.31009 3.68405 -17.7054
lshoulderjoint 0.162739 0.289684 40.3266
lhumerus 169.038 76.5375 180.147
lradius 37.3479 3.59403e-013 3.73715e-014
lwrist 1.62049e-013 -5.07799 -3.60819e-013
lhand 18.0846 4.96044 -12.3315
rfemur -16.9564 12.4893 5.56041
rtibia -1.59028e-015 -2.70347e-014 4.96962e-016
rfoot -178.057 -54.3865 157.082
rtoes -4.13472e-014 -2.8958e-013 -2.38542e-015
lfemur -14.8802 -8.8533 -11.731
ltibia -3.97569e-015 -7.95139e-015 8.34896e-015
lfoot -7.27261 6.39999 10.2123
ltoes -1.2921e-014 -1.02728e-013 -1.68569e-013
7
root 0.111085 3.73014 -0.635698 90.5019 -68.4999 89.0258
lowerback -27.8628 -1.29459 -6.56728
upperback -5.66888 -0.437191 1.35448
thorax 9.07161 -0.594051 5.13835
lowerneck 11.1764 -2.59941 -0.352549
upperneck 7.14096 -3.70863 -3.521
head 0.315807 -1.97634 -0.915895
rshoulderjoint 1.35057 -2.24128 -42.0839
rhumerus 170.621 -51.2279 -171.451
rradius 34.1319 9.22361e-014 9.70069e-014
rwrist -4.14413e-014 -3.86099 4.70199e-014
rhand 9.31525 3.7045 -17.7124
lshoulderjoint 0.158432 0.282 40.3281
lhumerus 169.119 76.5464 180.257
lradius 37.347 -2.44903e-013 -2.13097e-013
lwrist 1.92384e-013 -5.08105 -2.87379e-014
lhand 18.0843 4.96401 -12.3411
rfemur -16.982 12.4976 5.57538
rtibia -3.89618e-014 -1.59028e-014 1.36167e-014
rfoot -178.181 -54.3832 157.178
rtoes -1.145e-013 -1.22253e-013 1.37559e-013
lfemur -14.9045 -8.84323 -11.7095
ltibia -4.29375e-014 -1.11319e-014 7.95139e-016
lfoot -7.25057 6.36724 10.2245
ltoes 2.09022e-013 -8.13837e-014 -9.46215e-014
8
root 0.111794 3.73068 -0.635036 90.5274 -68.5126 89.0464
lowerback -27.8587 -1.29935 -6.57866
upperback -5.66804 -0.440156 1.35357
thorax 9.07087 -0.595677 5.14288
lowerneck 11.1763 -2.60423 -0.310389
upperneck 7.18765 -3.71053 -3.54019
head 0.329073 -1.97766 -0.92931
rshoulderjoint 1.34676 -2.2357 -42.0755
rhumerus 170.606 -51.3041 -171.461
rradius 34.1311 -2.38542e-013 -1.55847e-013
rwrist -2.39085e-014 -3.86527 1.43451e-014
rhand 9.34326 3.66443 -17.6954
lshoulderjoint 0.148387 0.264045 40.335
lhumerus 169.182 76.5435 180.35
lradius 37.3453 1.59028e-013 8.42847e-014
lwrist 2.04762e-013 -5.09595 -4.15113e-014
lhand 18.0721 4.97818 -12.3554
rfemur -16.9848 12.5009 5.5574
rtibia 1.43125e-014 1.27222e-014 -3.37934e-015
rfoot -178.307 -54.3748 157.272
rtoes 1.01778e-013 2.21943e-013 7.95139e-016
lfemur -14.9035 -8.83938 -11.7305
ltibia 1.11319e-014 -1.74931e-014 -8.74653e-015
lfoot -7.23181 6.29818 10.2386
ltoes -8.18993e-014 8.39368e-014 -3.49861e-014
9
root 0.112541 3.73131 -0.63403 90.5191 -68.5464 89.066
lowerback -27.8435 -1.29602 -6.54819
upperback -5.6489 -0.444866 1.36889
thorax 9.08604 -0.597597 5.14101
lowerneck 11.1529 -2.60936 -0.309139
upperneck 7.22491 -3.71679 -3.54436
head 0.344215 -1.98188 -0.931346
rshoulderjoint 1.35261 -2.24495 -42.0808
rhumerus 170.556 -51.313 -171.446
rradius 34.1339 1.33583e-013 1.33583e-013
rwrist -1.49829e-013 -3.87651 5.65843e-014
rhand 9.35881 3.66369 -17.7018
lshoulderjoint 0.159425 0.283944 40.3129
lhumerus 169.044 76.5322 180.255
lradius 37.3507 -1.01778e-013 -1.98785e-014
lwrist -9.02041e-014 -5.07367 8.46162e-014
lhand 18.0671 4.95972 -12.3645
rfemur -16.9668 12.5036 5.57255
rtibia 1.82882e-014 -6.36111e-015 -7.25564e-015
rfoot -178.463 -54.3624 157.387
rtoes -1.59028e-015 -8.07066e-014 -9.54166e-014
lfemur -14.884 -8.83776 -11.7292
ltibia 2.3059e-014 9.54166e-015 7.95139e-016
lfoot -7.20896 6.24706 10.2535
ltoes -5.36719e-014 -2.00276e-014 5.1684e-015
10
root 0.113835 3.73209 -0.633136 90.5131 -68.5686 89.1015
lowerback -27.801 -1.28488 -6.51032
upperback -5.65546 -0.445502 1.38141
thorax 9.0577 -0.595785 5.13259
lowerneck 11.1565 -2.61202 -0.304558
upperneck 7.2674 -3.72074 -3.5322
head 0.357059 -1.98508 -0.928614
rshoulderjoint 1.35685 -2.25336 -42.0654
rhumerus 170.521 -51.289 -171.425
rradius 34.1346 -3.65764e-013 -2.57625e-013
rwrist 1.78521e-013 -3.88552 5.57879e-015
rhand 9.35044 3.70529 -17.7252
lshoulderjoint 0.158414 0.282199 40.3081
lhumerus 168.947 76.5449 180.188
lradius 37.3538 2.70347e-013 2.23434e-013
lwrist 3.04948e-013 -5.09617 5.98721e-014
lhand 18.0415 4.97768 -12.3836
rfemur -16.9723 12.5123 5.5988
rtibia 4.77083e-014 3.33958e-014 -1.23246e-014
rfoot -178.593 -54.3575 157.477
rtoes 1.43125e-013 7.15476e-013 -1.7016e-013
lfemur -14.8883 -8.82865 -11.7082
ltibia 3.89618e-014 -9.54166e-015 -1.82882e-014
lfoot -7.17035 6.14853 10.2647
ltoes -2.49375e-013 2.03965e-013 8.74653e-015
11
root 0.115051 3.73269 -0.631963 90.5102 -68.5993 89.119
lowerback -27.7618 -1.28028 -6.47809
upperback -5.65997 -0.451087 1.37999
thorax 9.03383 -0.596494 5.10992
lowerneck 11.2027 -2.60978 -0.271984
upperneck 7.27522 -3.71615 -3.52356
head 0.351775 -1.98232 -0.930927
rshoulderjoint 1.33373 -2.21658 -42.0466
rhumerus 170.559 -51.3186 -171.473
rradius 34.132 -1.78111e-013 -1.27222e-013
rwrist 7.01337e-014 -3.88858 -6.37579e-015
rhand 9.34664 3.67834 -17.7355
lshoulderjoint 0.144489 0.257129 40.3331
lhumerus 169.082 76.5474 180.363
lradius 37.3567 2.03555e-013 1.59823e-013
lwrist 1.51674e-013 -5.08765 1.51674e-014
lhand 18.0252 4.96982 -12.3755
rfemur -16.9609 12.5118 5.60001
rtibia 2.06736e-014 -1.11319e-014 -4.57205e-015
rfoot -178.728 -54.3404 157.576
rtoes 5.725e-014 3.44394e-014 -5.08889e-014
lfemur -14.8779 -8.82813 -11.7149
ltibia 1.11319e-014 -7.95139e-015 -2.38542e-015
lfoot -7.14608 6.08305 10.2865
ltoes -7.55382e-014 3.34145e-014 -2.38542e-014
